<svg width="600" height="600" viewBox="0 0 600 600" fill="none" xmlns="http://www.w3.org/2000/svg">
<g clip-path="url(#clip0_456_17)">
<path d="M314.686 68.3985C319.608 70.6689 325.693 71.677 331.178 74.1109C363.954 88.6779 393.27 130.39 410.234 160.323C447.07 225.312 480.627 319.916 468.466 394.64C457.132 464.278 399.237 520.448 329.961 531.31C260.686 542.172 192.528 513.274 155.275 452.536C115.252 387.284 131.554 308.763 155.375 240.478C175.537 182.655 214.215 104.371 270.585 75.2552C279.022 70.896 305.232 64.0302 314.686 68.3894V68.3985ZM346.327 122.989C291.092 93.1461 206.623 126.621 213.226 196.596C216.758 234.003 246.083 249.578 275.707 263.264C294.052 271.737 308.02 281.782 317.983 299.809C320.771 304.849 321.643 310.761 325.375 315.102C330.924 306.793 332.977 296.866 332.196 286.967C334.729 286.695 336.7 288.675 338.562 290.128C391.399 331.613 383.78 400.488 314.268 414.792C265.89 424.755 200.711 383.379 226.494 329.742C231.262 319.825 238.436 315.893 248.635 312.387C247.427 315.493 245.229 317.373 243.767 320.679C234.849 340.903 252.177 359.276 272.556 358.567C303.933 357.478 308.42 328.144 294.834 304.985C283.627 285.868 259.833 282.926 241.197 273.962C226.458 266.87 209.202 255.999 204.126 239.734C201.919 239.688 200.593 241.032 199.34 242.667C171.731 278.712 153.268 336.735 160.588 381.816C176.654 480.743 300.074 514.5 378.612 465.531C455.734 417.444 456.914 321.441 379.865 273.336C352.311 256.126 278.205 227.11 264.61 200.601C263.883 199.175 262.939 191.955 261.24 196.505C257.299 207.067 262.73 227.555 273.128 233.404C274.009 237.2 268.515 233.404 267.089 232.632C245.629 221.053 234.558 197.785 242.596 174.218C258.352 128.002 331.996 136.529 337.536 186.706C338.426 194.779 335.71 198.548 331.278 204.842L325.012 203.325C323.668 200.274 326.329 199.938 326.647 199.066C329.78 190.502 329.644 183.436 323.141 176.58C313.378 166.299 293.326 168.324 286.942 181.329C276.915 201.745 302.099 209.482 315.394 217.029C333.313 227.21 351.285 237.736 369.549 247.335C373.899 249.623 380.928 253.783 385.142 255.363C385.968 255.672 386.667 256.589 387.63 255.69C388.284 255.218 389.864 250.25 390.1 249.051C398.928 204.106 389.828 146.474 346.336 122.979L346.327 122.989Z" fill="url(#paint0_linear_456_17)"/>
</g>
<defs>
<linearGradient id="paint0_linear_456_17" x1="471" y1="17.5" x2="99" y2="635.5" gradientUnits="userSpaceOnUse">
<stop stop-color="#BEDD0B"/>
<stop offset="1" stop-color="#699809"/>
</linearGradient>
<clipPath id="clip0_456_17">
<rect width="340" height="466.617" fill="white" transform="translate(131 67)"/>
</clipPath>
</defs>
</svg>
